<svg width="90" height="114" viewBox="0 0 90 114" fill="none" xmlns="http://www.w3.org/2000/svg">
<rect width="90" height="114" fill="white"/>
<path d="M33.2878 30.8059H49.4316V70.4291L41.3597 92.0928L33.2878 70.4291V30.8059Z" stroke="#009723" stroke-width="2" stroke-miterlimit="10" stroke-linecap="round" stroke-linejoin="round"/>
<path d="M33.7924 71.7045L38.6691 67.5785L44.0503 72.4815L49.4316 67.5785" stroke="#009723" stroke-width="2" stroke-miterlimit="10" stroke-linecap="round" stroke-linejoin="round"/>
<path d="M38.619 84.7389H44.0998" stroke="#009723" stroke-width="2" stroke-miterlimit="10" stroke-linecap="round" stroke-linejoin="round"/>
<path d="M38.669 62.6751V35.7089" stroke="#009723" stroke-width="2" stroke-miterlimit="10" stroke-linecap="round" stroke-linejoin="round"/>
<path d="M1 92.0933H19.8345V21H1V92.0933Z" stroke="#009723" stroke-width="2" stroke-miterlimit="10" stroke-linecap="round" stroke-linejoin="round"/>
<path d="M9.07193 60.2236H19.8325" stroke="#009723" stroke-width="2" stroke-miterlimit="10" stroke-linecap="round" stroke-linejoin="round"/>
<path d="M14.4532 52.8692H19.8345" stroke="#009723" stroke-width="2" stroke-miterlimit="10" stroke-linecap="round" stroke-linejoin="round"/>
<path d="M9.07193 45.5148H19.8325" stroke="#009723" stroke-width="2" stroke-miterlimit="10" stroke-linecap="round" stroke-linejoin="round"/>
<path d="M9.07193 30.8059H19.8325" stroke="#009723" stroke-width="2" stroke-miterlimit="10" stroke-linecap="round" stroke-linejoin="round"/>
<path d="M14.4532 38.1603H19.8345" stroke="#009723" stroke-width="2" stroke-miterlimit="10" stroke-linecap="round" stroke-linejoin="round"/>
<path d="M11.7626 82.2874H19.8345" stroke="#009723" stroke-width="2" stroke-miterlimit="10" stroke-linecap="round" stroke-linejoin="round"/>
<path d="M9.07193 74.9325H19.8325" stroke="#009723" stroke-width="2" stroke-miterlimit="10" stroke-linecap="round" stroke-linejoin="round"/>
<path d="M14.4532 67.578H19.8345" stroke="#009723" stroke-width="2" stroke-miterlimit="10" stroke-linecap="round" stroke-linejoin="round"/>
<path d="M33.2878 30.8041V24.6772C33.2882 23.7021 33.7135 22.767 34.4703 22.0774C35.2271 21.3879 36.2534 21.0004 37.3237 21H45.3957C46.4659 21.0004 47.4923 21.3879 48.2491 22.0774C49.0059 22.767 49.4312 23.7021 49.4316 24.6772V30.8041" stroke="#009723" stroke-width="2" stroke-miterlimit="10" stroke-linecap="round" stroke-linejoin="round"/>
</svg>
