<svg width="90" height="114" viewBox="0 0 90 114" fill="none" xmlns="http://www.w3.org/2000/svg">
<rect width="90" height="114" fill="white"/>
<g clip-path="url(#clip0)">
<path d="M33.7212 88.9989H29.2757C29.1516 88.9991 29.0316 88.9546 28.9376 88.8736C28.8436 88.7926 28.7819 88.6804 28.7637 88.5576L27.534 80.3675C26.158 80.1339 24.8068 79.7724 23.4979 79.2877L18.3398 85.7695C18.2625 85.8664 18.1531 85.9323 18.0314 85.9554C17.9096 85.9785 17.7837 85.9572 17.6763 85.8953L13.8228 83.6719C13.7155 83.6098 13.634 83.5113 13.5931 83.3943C13.5522 83.2773 13.5546 83.1495 13.5999 83.0341L16.6334 75.3176C15.5626 74.4245 14.5748 73.4364 13.682 72.3653L5.96927 75.399C5.854 75.4447 5.72611 75.4475 5.609 75.4067C5.49188 75.3659 5.39336 75.2843 5.33147 75.1768L3.10782 71.3231C3.04611 71.2156 3.02487 71.0896 3.04793 70.9678C3.07099 70.846 3.13684 70.7364 3.23358 70.6589L9.70948 65.4983C9.22883 64.1906 8.86717 62.8422 8.62891 61.4695L0.439901 60.2368C0.317336 60.2183 0.205468 60.1565 0.124631 60.0625C0.0437948 59.9685 -0.000643479 59.8487 -0.000610333 59.7247V55.2754C-0.000540792 55.1515 0.0439521 55.0318 0.124786 54.938C0.205621 54.8442 0.317431 54.7824 0.439901 54.7641L8.62891 53.5328C8.86788 52.1571 9.22951 50.8055 9.70948 49.4943L3.23358 44.3416C3.13684 44.2641 3.07099 44.1545 3.04793 44.0327C3.02487 43.9109 3.04611 43.7849 3.10782 43.6774L5.33147 39.8237C5.39347 39.7163 5.492 39.6348 5.60908 39.594C5.72615 39.5533 5.85399 39.5559 5.96927 39.6015L13.682 42.634C14.5752 41.5633 15.563 40.5752 16.6334 39.6817L13.5988 31.9649C13.5534 31.8495 13.5509 31.7217 13.5918 31.6046C13.6328 31.4876 13.7143 31.3891 13.8217 31.3271L17.6752 29.1026C17.7826 29.0411 17.9085 29.02 18.0301 29.043C18.1518 29.0661 18.2611 29.1318 18.3386 29.2284L23.4968 35.7045C24.8062 35.2229 26.1568 34.8615 27.5318 34.6247L28.7614 26.4376C28.7798 26.3149 28.8416 26.203 28.9356 26.1221C29.0296 26.0412 29.1495 25.9969 29.2735 25.997H33.7189C33.8429 25.9969 33.9628 26.0413 34.0567 26.1222C34.1507 26.203 34.2125 26.315 34.2309 26.4376L35.4606 34.6247C36.8364 34.862 38.1878 35.2237 39.4983 35.7053L44.6564 29.2265C44.7336 29.1293 44.8432 29.0631 44.9652 29.0402C45.0871 29.0172 45.2133 29.039 45.3205 29.1015L49.1703 31.3252C49.2778 31.3871 49.3595 31.4856 49.4004 31.6027C49.4413 31.7198 49.4388 31.8477 49.3932 31.963L46.3597 39.6787C47.4311 40.5722 48.4199 41.5603 49.3142 42.631L57.0246 39.5985C57.1399 39.5527 57.2678 39.5499 57.3849 39.5907C57.5021 39.6315 57.6006 39.7131 57.6624 39.8207L59.8883 43.6744C59.9503 43.7818 59.9718 43.9079 59.9487 44.0298C59.9256 44.1517 59.8596 44.2612 59.7626 44.3385L53.2825 49.4969C53.7646 50.8053 54.1263 52.1549 54.3631 53.5291L62.5555 54.7618C62.6779 54.7803 62.7896 54.8421 62.8704 54.9359C62.9512 55.0297 62.9958 55.1493 62.996 55.2731V59.7202C62.996 59.8441 62.9515 59.964 62.8707 60.0579C62.7899 60.1519 62.678 60.2137 62.5555 60.2323L54.3631 61.465C54.126 62.838 53.7643 64.1865 53.2825 65.4938L59.7626 70.6544C59.8596 70.7317 59.9257 70.8412 59.9488 70.9631C59.9719 71.085 59.9504 71.2112 59.8883 71.3186L57.6624 75.1723C57.6006 75.2798 57.5021 75.3615 57.3849 75.4023C57.2678 75.4431 57.1399 75.4403 57.0246 75.3944L49.3142 72.3608C48.4201 73.4317 47.4313 74.4198 46.3597 75.3131L49.3932 83.0295C49.4388 83.145 49.4412 83.273 49.4002 83.3901C49.3591 83.5072 49.2773 83.6057 49.1696 83.6674L45.3198 85.8847C45.2123 85.9461 45.0864 85.9671 44.9647 85.9439C44.8431 85.9208 44.7338 85.8549 44.6564 85.7582L39.4983 79.2873C38.1878 79.7686 36.836 80.1288 35.4599 80.3634L34.2302 88.5535C34.2129 88.6765 34.152 88.7891 34.0585 88.8709C33.9651 88.9527 33.8453 88.9981 33.7212 88.9989V88.9989ZM29.7212 87.9627H33.2761L34.4952 79.8393C34.5117 79.73 34.5628 79.6288 34.6409 79.5505C34.719 79.4723 34.8201 79.4211 34.9294 79.4044C36.4872 79.1657 38.0147 78.7591 39.4851 78.1916C39.5879 78.1518 39.7008 78.1458 39.8073 78.1746C39.9137 78.2034 40.0082 78.2654 40.0769 78.3516L45.1929 84.7691L48.2709 82.9972L45.2629 75.3455C45.2227 75.2427 45.2162 75.1298 45.2445 75.0231C45.2727 74.9164 45.3342 74.8215 45.4199 74.7521C46.6473 73.7637 47.7653 72.6469 48.755 71.4206C48.8238 71.3344 48.9185 71.2726 49.025 71.2443C49.1316 71.2161 49.2445 71.2228 49.3469 71.2636L56.9937 74.2724L58.7735 71.1913L52.3477 66.0736C52.2614 66.005 52.1994 65.9106 52.1706 65.8042C52.1418 65.6977 52.1478 65.5849 52.1876 65.4821C52.7562 64.014 53.1647 62.4888 53.406 60.933C53.4227 60.8238 53.4739 60.7227 53.5522 60.6448C53.6304 60.5668 53.7316 60.5159 53.8409 60.4996L61.9655 59.277V55.7212L53.8409 54.4986C53.7317 54.4822 53.6306 54.4312 53.5523 54.3533C53.4741 54.2753 53.4228 54.1744 53.406 54.0652C53.1648 52.5091 52.7561 50.9836 52.1869 49.5153C52.1473 49.4124 52.1416 49.2995 52.1705 49.1931C52.1994 49.0867 52.2614 48.9922 52.3477 48.9234L58.7735 43.8065L56.9937 40.7251L49.3469 43.7331C49.2445 43.7738 49.1318 43.7806 49.0252 43.7524C48.9187 43.7243 48.824 43.6628 48.755 43.5768C47.7653 42.3504 46.6473 41.2333 45.4199 40.2446C45.3341 40.1752 45.2726 40.0803 45.2444 39.9736C45.2161 39.8669 45.2226 39.754 45.2629 39.6512L48.2716 31.9995L45.1929 30.2212L40.0769 36.6458C40.0079 36.7316 39.9134 36.7933 39.807 36.8221C39.7007 36.8509 39.588 36.8452 39.4851 36.8059C38.0144 36.2382 36.4871 35.8297 34.9294 35.5874C34.8203 35.5705 34.7196 35.5191 34.6418 35.4409C34.564 35.3627 34.5132 35.2617 34.4968 35.1525L33.2776 27.0332H29.7227L28.5028 35.1525C28.4865 35.2617 28.4358 35.3628 28.3579 35.4411C28.2801 35.5193 28.1793 35.5706 28.0702 35.5874C26.5133 35.829 24.9869 36.2375 23.5175 36.8059C23.4146 36.8453 23.3018 36.8511 23.1954 36.8224C23.0891 36.7936 22.9946 36.7318 22.9256 36.6458L17.8089 30.2212L14.7276 31.9995L17.7355 39.6512C17.7758 39.754 17.7823 39.8669 17.754 39.9736C17.7258 40.0803 17.6643 40.1752 17.5785 40.2446C16.3519 41.2331 15.2348 42.3502 14.2464 43.5768C14.1774 43.6629 14.0825 43.7246 13.9758 43.7527C13.8691 43.7808 13.7562 43.774 13.6538 43.7331L6.00541 40.7251L4.22793 43.8065L10.6507 48.9163C10.7369 48.9849 10.7989 49.0791 10.8278 49.1854C10.8567 49.2916 10.851 49.4043 10.8115 49.5071C10.2449 50.9795 9.83561 52.5078 9.5905 54.0664C9.57352 54.1751 9.52225 54.2757 9.44417 54.3533C9.36609 54.4309 9.26527 54.4815 9.15639 54.4979L1.03591 55.7204V59.2763L9.15602 60.4985C9.26494 60.5147 9.36582 60.5653 9.44392 60.6429C9.52202 60.7206 9.57326 60.8211 9.59013 60.93C9.8339 62.486 10.2432 64.0116 10.8111 65.4806C10.8507 65.5835 10.8564 65.6963 10.8275 65.8027C10.7986 65.9091 10.7366 66.0034 10.6504 66.0721L4.2268 71.1917L6.00428 74.2728L13.6526 71.264C13.7552 71.2231 13.8682 71.2163 13.9749 71.2445C14.0816 71.2728 14.1764 71.3347 14.2452 71.421C15.2337 72.6474 16.3508 73.7643 17.5773 74.7525C17.6631 74.8219 17.7246 74.9168 17.7528 75.0235C17.781 75.1302 17.7746 75.2431 17.7343 75.3459L14.7264 82.9983L17.8066 84.7759L22.9241 78.3456C22.9927 78.2587 23.0875 78.1963 23.1944 78.1676C23.3013 78.139 23.4146 78.1455 23.5175 78.1864C24.9849 78.7584 26.5109 79.1668 28.0679 79.404C28.1771 79.4208 28.278 79.472 28.356 79.5503C28.434 79.6285 28.4849 79.7297 28.5013 79.8389L29.7212 87.9627Z" fill="#009723"/>
<path d="M31.4977 72.9274C28.447 72.9269 25.4649 72.0217 22.9285 70.3264C20.3922 68.631 18.4155 66.2216 17.2484 63.4029C16.0812 60.5841 15.7761 57.4825 16.3716 54.4903C16.967 51.4982 18.4363 48.7497 20.5937 46.5926C22.7511 44.4355 25.4996 42.9665 28.4917 42.3715C31.4839 41.7764 34.5853 42.082 37.4038 43.2496C40.2222 44.4172 42.6312 46.3943 44.3261 48.931C46.021 51.4677 46.9257 54.4501 46.9258 57.5009C46.9214 61.5913 45.2945 65.5129 42.402 68.405C39.5096 71.2972 35.5879 72.9236 31.4977 72.9274ZM31.4977 43.111C28.6518 43.1116 25.87 43.9561 23.5041 45.5377C21.1381 47.1193 19.2942 49.3669 18.2055 51.9965C17.1169 54.626 16.8323 57.5193 17.3879 60.3106C17.9435 63.1018 19.3142 65.6656 21.3267 67.6778C23.3393 69.69 25.9033 71.0603 28.6945 71.6153C31.4858 72.1703 34.3789 71.8852 37.0081 70.7959C39.6373 69.7066 41.8845 67.8622 43.4655 65.4958C45.0465 63.1294 45.8904 60.3473 45.8904 57.5013C45.8865 53.6853 44.3688 50.0268 41.6705 47.3287C38.9721 44.6305 35.3135 43.1133 31.4977 43.1099V43.111Z" fill="#009723"/>
<path d="M31.4981 59.4713C31.1084 59.4714 30.7273 59.3558 30.4032 59.1394C30.0791 58.9229 29.8265 58.6151 29.6773 58.2551C29.528 57.895 29.4889 57.4988 29.5649 57.1165C29.6409 56.7342 29.8285 56.383 30.104 56.1073C30.3796 55.8317 30.7307 55.6439 31.1129 55.5678C31.4952 55.4917 31.8914 55.5306 32.2515 55.6797C32.6116 55.8288 32.9194 56.0813 33.136 56.4054C33.3526 56.7294 33.4683 57.1104 33.4684 57.5002C33.4678 58.0226 33.26 58.5235 32.8907 58.893C32.5213 59.2625 32.0205 59.4705 31.4981 59.4713ZM31.4981 56.5653C31.3132 56.5653 31.1325 56.6201 30.9787 56.7228C30.825 56.8256 30.7052 56.9716 30.6344 57.1424C30.5637 57.3132 30.5451 57.5012 30.5812 57.6826C30.6173 57.8639 30.7063 58.0305 30.8371 58.1613C30.9678 58.292 31.1344 58.3811 31.3157 58.4171C31.4971 58.4532 31.685 58.4347 31.8559 58.3639C32.0267 58.2932 32.1727 58.1733 32.2754 58.0196C32.3781 57.8658 32.433 57.6851 32.433 57.5002C32.4329 57.2522 32.3344 57.0144 32.1591 56.8389C31.9838 56.6635 31.7461 56.5648 31.4981 56.5645V56.5653Z" fill="#009723"/>
<path d="M39.1785 58.6531C39.1641 58.6531 39.1498 58.6524 39.1355 58.6508L32.9055 58.1395C32.8378 58.1341 32.7718 58.1153 32.7114 58.0843C32.651 58.0533 32.5972 58.0107 32.5533 57.9589C32.5094 57.9071 32.4761 57.8471 32.4554 57.7824C32.4347 57.7177 32.4269 57.6496 32.4326 57.5819C32.437 57.5137 32.4551 57.4471 32.4858 57.3861C32.5165 57.325 32.5592 57.2708 32.6113 57.2266C32.6634 57.1824 32.7239 57.1491 32.7891 57.1288C32.8543 57.1085 32.923 57.1015 32.991 57.1082L39.2203 57.6203C39.3529 57.6316 39.4761 57.6937 39.5642 57.7936C39.6523 57.8934 39.6985 58.0234 39.6931 58.1565C39.6878 58.2895 39.6314 58.4154 39.5356 58.5079C39.4398 58.6004 39.312 58.6524 39.1788 58.6531H39.1785ZM30.5418 56.9264C30.4682 56.9264 30.3955 56.9108 30.3285 56.8804C30.2615 56.8501 30.2017 56.8058 30.1532 56.7505L27.081 53.2519C27.0342 53.2012 26.998 53.1416 26.9746 53.0767C26.9512 53.0118 26.941 52.9429 26.9446 52.874C26.9482 52.8051 26.9656 52.7376 26.9957 52.6755C27.0258 52.6134 27.068 52.558 27.1198 52.5125C27.1717 52.4669 27.2321 52.4322 27.2975 52.4104C27.363 52.3886 27.4321 52.38 27.5009 52.3853C27.5697 52.3906 27.6367 52.4096 27.6981 52.4412C27.7594 52.4728 27.8138 52.5163 27.8581 52.5693L30.9303 56.0671C30.996 56.1419 31.0387 56.234 31.0533 56.3324C31.068 56.4308 31.0539 56.5313 31.013 56.622C30.972 56.7126 30.9057 56.7895 30.8222 56.8435C30.7386 56.8975 30.6413 56.9263 30.5418 56.9264Z" fill="#009723"/>
</g>
<defs>
<clipPath id="clip0">
<rect y="26" width="63" height="63" fill="white"/>
</clipPath>
</defs>
</svg>
