<svg width="90" height="114" viewBox="0 0 90 114" fill="none" xmlns="http://www.w3.org/2000/svg">
<rect width="90" height="114" fill="white"/>
<path d="M77.6439 30.2022H62.0321L49.2583 72.7831L1 50.0733V35.878H60.2851" stroke="#009723" stroke-width="2" stroke-linecap="round" stroke-linejoin="round"/>
<path d="M81.9032 52.912H67.7096L70.5483 41.5571H79.0645L81.9032 52.912Z" stroke="#009723" stroke-width="2" stroke-linecap="round" stroke-linejoin="round"/>
<path d="M74.951 84.0601C81.2432 84.0601 86.344 78.8665 86.344 72.4599C86.344 66.0533 81.2432 60.8598 74.951 60.8598C68.6588 60.8598 63.558 66.0533 63.558 72.4599C63.558 78.8665 68.6588 84.0601 74.951 84.0601Z" stroke="#009723" stroke-width="2" stroke-linecap="round" stroke-linejoin="round"/>
<path d="M12.393 84.0601C18.6852 84.0601 23.786 78.8665 23.786 72.4599C23.786 66.0533 18.6852 60.8598 12.393 60.8598C6.10082 60.8598 1 66.0533 1 72.4599C1 78.8665 6.10082 84.0601 12.393 84.0601Z" stroke="#009723" stroke-width="2" stroke-linecap="round" stroke-linejoin="round"/>
<path d="M86.1613 72.7831H89V55.7508L83.3225 35.8797H66.2886L60.6128 55.7508V72.7831H63.4515" stroke="#009723" stroke-width="2" stroke-linecap="round" stroke-linejoin="round"/>
<path d="M12.393 75.7742C13.8803 75.7742 15.0859 74.3831 15.0859 72.6671C15.0859 70.951 13.8803 69.5599 12.393 69.5599C10.9058 69.5599 9.70012 70.951 9.70012 72.6671C9.70012 74.3831 10.9058 75.7742 12.393 75.7742Z" stroke="#009723" stroke-width="2" stroke-linecap="round" stroke-linejoin="round"/>
<path d="M74.951 75.7742C76.4382 75.7742 77.6439 74.3831 77.6439 72.6671C77.6439 70.951 76.4382 69.5599 74.951 69.5599C73.4637 69.5599 72.2581 70.951 72.2581 72.6671C72.2581 74.3831 73.4637 75.7742 74.951 75.7742Z" stroke="#009723" stroke-width="2" stroke-linecap="round" stroke-linejoin="round"/>
</svg>
