<svg width="90" height="114" viewBox="0 0 90 114" fill="none" xmlns="http://www.w3.org/2000/svg">
<rect width="90" height="114" fill="white"/>
<path d="M25.4762 60.2456L28.7552 63.5243" stroke="#009723" stroke-width="2" stroke-linecap="round" stroke-linejoin="round"/>
<path d="M45.3734 40.3488L22.1972 63.5235C21.7625 63.9582 21.1729 64.2024 20.5581 64.2024C19.9433 64.2024 19.3537 63.9582 18.919 63.5235L14.0013 58.6061L4.165 68.4424C-0.753533 73.3597 1.19366 85.1436 2.52589 86.4746C3.85812 87.8056 15.6404 89.754 20.5581 84.8355C25.4758 79.9169 30.3943 74.9992 30.3943 74.9992L25.4766 70.0815C25.2611 69.8664 25.0902 69.6109 24.9735 69.3296C24.8569 69.0484 24.7969 68.7469 24.7969 68.4424C24.7969 68.1379 24.8569 67.8364 24.9735 67.5551C25.0902 67.2739 25.2611 67.0184 25.4766 66.8033L48.6529 43.6286" stroke="#009723" stroke-width="2" stroke-linecap="round" stroke-linejoin="round"/>
<path d="M64.0004 36.4754L60.7222 39.7536C58.005 42.4696 51.7051 47.1304 46.7878 42.213C41.8705 37.2957 46.53 30.9942 49.2473 28.2786L52.5251 25L64.0004 36.4754Z" stroke="#009723" stroke-width="2" stroke-linecap="round" stroke-linejoin="round"/>
<path d="M49.2461 28.279L60.7215 39.7544" stroke="#009723" stroke-width="2" stroke-linecap="round" stroke-linejoin="round"/>
<path d="M22.1972 63.5246L17.2787 68.4424L15.6404 73.3605L20.5577 71.7214L25.4762 66.8037" stroke="#009723" stroke-width="2" stroke-linecap="round" stroke-linejoin="round"/>
</svg>
