<svg width="90" height="114" viewBox="0 0 90 114" fill="none" xmlns="http://www.w3.org/2000/svg">
<rect width="90" height="114" fill="white"/>
<path d="M42.0337 90.4516C42.0269 90.4522 42.0201 90.4522 42.0133 90.4516H0.665697C0.489136 90.4516 0.319806 90.3815 0.194958 90.2566C0.0701112 90.1318 -3.05176e-05 89.9625 -3.05176e-05 89.7859V17.6657C-3.05176e-05 17.4892 0.0701112 17.3198 0.194958 17.195C0.319806 17.0701 0.489136 17 0.665697 17H39.546C39.6335 16.9998 39.7202 17.0169 39.801 17.0503C39.8819 17.0837 39.9553 17.1327 40.0172 17.1945L59.5188 36.6989C59.6433 36.8241 59.7132 36.9935 59.7134 37.1701V71.9166C59.7133 72.0266 59.6861 72.1349 59.634 72.2317C59.582 72.3286 59.5067 72.4111 59.4151 72.4718C59.3234 72.5326 59.2181 72.5697 59.1086 72.5798C58.9991 72.59 58.8888 72.5729 58.7875 72.53C57.2582 71.8823 55.6136 71.5507 53.9528 71.5551C50.6245 71.5585 47.4336 72.8822 45.0803 75.2357C42.727 77.5892 41.4035 80.7803 41.4005 84.1085C41.396 85.9258 41.7899 87.7218 42.5545 89.3704C42.6327 89.4683 42.6817 89.5864 42.6958 89.711C42.7099 89.8355 42.6886 89.9616 42.6342 90.0746C42.5799 90.1875 42.4947 90.2829 42.3886 90.3496C42.2824 90.4163 42.1596 90.4517 42.0342 90.4516H42.0337ZM1.332 89.1208H41.0015C40.0487 86.6603 39.8168 83.9794 40.3329 81.3919C40.8489 78.8044 42.0916 76.4176 43.9154 74.5109C45.7391 72.6043 48.0685 71.2568 50.6305 70.6264C53.1925 69.9959 55.8811 70.1086 58.3814 70.9511V37.4445L39.27 18.3298H1.332V89.1208Z" fill="#009723"/>
<path d="M59.5651 38.329C59.5584 38.3301 59.5515 38.3301 59.5448 38.329H40.0437C39.9562 38.3292 39.8695 38.3121 39.7886 38.2787C39.7077 38.2453 39.6342 38.1963 39.5722 38.1344C39.5103 38.0726 39.4612 37.9992 39.4277 37.9183C39.3941 37.8375 39.3769 37.7508 39.3769 37.6633V18.1601C39.377 18.0285 39.4161 17.8999 39.4893 17.7905C39.5625 17.6812 39.6665 17.5959 39.7881 17.5456C39.9097 17.4953 40.0435 17.4822 40.1725 17.5079C40.3016 17.5336 40.4202 17.5969 40.5132 17.69L59.9288 37.1056C60.0494 37.1837 60.1414 37.2987 60.1911 37.4334C60.2409 37.568 60.2457 37.7152 60.2049 37.8529C60.1641 37.9906 60.0799 38.1113 59.9648 38.1972C59.8496 38.283 59.7098 38.3292 59.5662 38.329H59.5651ZM40.7077 36.9981H57.9394L40.7089 19.7676L40.7077 36.9981Z" fill="#009723"/>
<path d="M30.0286 26.8949H9.66898C9.57998 26.8975 9.49138 26.8822 9.4084 26.8499C9.32543 26.8176 9.24976 26.769 9.1859 26.7069C9.12204 26.6449 9.07129 26.5707 9.03662 26.4887C9.00196 26.4066 8.98412 26.3185 8.98412 26.2295C8.98412 26.1404 9.00196 26.0523 9.03662 25.9703C9.07129 25.8883 9.12204 25.8141 9.1859 25.752C9.24976 25.69 9.32543 25.6414 9.4084 25.6091C9.49138 25.5768 9.57998 25.5615 9.66898 25.564H30.0286C30.1176 25.5615 30.2062 25.5768 30.2892 25.6091C30.3722 25.6414 30.4479 25.69 30.5117 25.752C30.5756 25.8141 30.6263 25.8883 30.661 25.9703C30.6957 26.0523 30.7135 26.1404 30.7135 26.2295C30.7135 26.3185 30.6957 26.4066 30.661 26.4887C30.6263 26.5707 30.5756 26.6449 30.5117 26.7069C30.4479 26.769 30.3722 26.8176 30.2892 26.8499C30.2062 26.8822 30.1176 26.8975 30.0286 26.8949V26.8949Z" fill="#009723"/>
<path d="M35.797 35.508H9.66898C9.57998 35.5105 9.49138 35.4952 9.4084 35.4629C9.32543 35.4306 9.24976 35.382 9.1859 35.32C9.12204 35.2579 9.07129 35.1837 9.03662 35.1017C9.00196 35.0197 8.98412 34.9315 8.98412 34.8425C8.98412 34.7535 9.00196 34.6653 9.03662 34.5833C9.07129 34.5013 9.12204 34.4271 9.1859 34.365C9.24976 34.303 9.32543 34.2544 9.4084 34.2221C9.49138 34.1898 9.57998 34.1745 9.66898 34.1771H35.797C35.886 34.1745 35.9746 34.1898 36.0576 34.2221C36.1405 34.2544 36.2162 34.303 36.28 34.365C36.3439 34.4271 36.3946 34.5013 36.4293 34.5833C36.464 34.6653 36.4818 34.7535 36.4818 34.8425C36.4818 34.9315 36.464 35.0197 36.4293 35.1017C36.3946 35.1837 36.3439 35.2579 36.28 35.32C36.2162 35.382 36.1405 35.4306 36.0576 35.4629C35.9746 35.4952 35.886 35.5105 35.797 35.508V35.508Z" fill="#009723"/>
<path d="M47.818 62.4494H9.66898C9.57998 62.4519 9.49138 62.4366 9.4084 62.4043C9.32543 62.372 9.24976 62.3234 9.1859 62.2614C9.12204 62.1993 9.07129 62.1251 9.03662 62.0431C9.00196 61.9611 8.98412 61.873 8.98412 61.7839C8.98412 61.6949 9.00196 61.6067 9.03662 61.5247C9.07129 61.4427 9.12204 61.3685 9.1859 61.3065C9.24976 61.2444 9.32543 61.1958 9.4084 61.1635C9.49138 61.1312 9.57998 61.1159 9.66898 61.1185H47.818C47.907 61.1159 47.9956 61.1312 48.0786 61.1635C48.1616 61.1958 48.2372 61.2444 48.3011 61.3065C48.3649 61.3685 48.4157 61.4427 48.4504 61.5247C48.485 61.6067 48.5029 61.6949 48.5029 61.7839C48.5029 61.873 48.485 61.9611 48.4504 62.0431C48.4157 62.1251 48.3649 62.1993 48.3011 62.2614C48.2372 62.3234 48.1616 62.372 48.0786 62.4043C47.9956 62.4366 47.907 62.4519 47.818 62.4494V62.4494Z" fill="#009723"/>
<path d="M47.818 54.1818H9.66899C9.49257 54.1818 9.32336 54.1118 9.19862 53.987C9.07388 53.8623 9.0038 53.6931 9.0038 53.5167C9.0038 53.3403 9.07388 53.1711 9.19862 53.0463C9.32336 52.9216 9.49257 52.8515 9.66899 52.8515H47.818C47.9944 52.8515 48.1636 52.9216 48.2883 53.0463C48.4131 53.1711 48.4832 53.3403 48.4832 53.5167C48.4832 53.6931 48.4131 53.8623 48.2883 53.987C48.1636 54.1118 47.9944 54.1818 47.818 54.1818V54.1818Z" fill="#009723"/>
<path d="M47.818 45.5693H9.66898C9.57998 45.5719 9.49138 45.5566 9.4084 45.5243C9.32543 45.492 9.24976 45.4434 9.1859 45.3814C9.12204 45.3193 9.07129 45.2451 9.03662 45.1631C9.00196 45.0811 8.98412 44.9929 8.98412 44.9039C8.98412 44.8148 9.00196 44.7267 9.03662 44.6447C9.07129 44.5627 9.12204 44.4885 9.1859 44.4264C9.24976 44.3644 9.32543 44.3158 9.4084 44.2835C9.49138 44.2512 9.57998 44.2359 9.66898 44.2384H47.818C47.907 44.2359 47.9956 44.2512 48.0786 44.2835C48.1616 44.3158 48.2372 44.3644 48.3011 44.4264C48.3649 44.4885 48.4157 44.5627 48.4504 44.6447C48.485 44.7267 48.5029 44.8148 48.5029 44.9039C48.5029 44.9929 48.485 45.0811 48.4504 45.1631C48.4157 45.2451 48.3649 45.3193 48.3011 45.3814C48.2372 45.4434 48.1616 45.492 48.0786 45.5243C47.9956 45.5566 47.907 45.5719 47.818 45.5693Z" fill="#009723"/>
<path d="M53.9522 98C51.2055 98.0011 48.52 97.1876 46.2356 95.6625C43.9512 94.1373 42.1703 91.969 41.1182 89.4317C40.0661 86.8943 39.7901 84.102 40.325 81.4079C40.8599 78.7137 42.1818 76.2386 44.1234 74.2957C46.065 72.3528 48.5392 71.0292 51.233 70.4925C53.9268 69.9558 56.7193 70.2299 59.2573 71.2803C61.7954 72.3306 63.9649 74.1101 65.4916 76.3935C67.0183 78.6769 67.8336 81.3618 67.8343 84.1085C67.8311 87.7902 66.3678 91.3202 63.7654 93.9244C61.1629 96.5286 57.6339 97.9943 53.9522 98V98ZM53.9522 71.5551C51.4682 71.5537 49.0395 72.2891 46.9734 73.6682C44.9074 75.0473 43.2968 77.0082 42.3454 79.3029C41.394 81.5975 41.1445 84.1228 41.6285 86.5592C42.1125 88.9957 43.3083 91.2338 45.0646 92.9905C46.8209 94.7473 49.0587 95.9436 51.495 96.4283C53.9313 96.913 56.4566 96.6642 58.7515 95.7134C61.0464 94.7625 63.0078 93.1525 64.3874 91.0868C65.7671 89.0211 66.5031 86.5926 66.5023 84.1085C66.4992 80.7807 65.1762 77.5899 62.8233 75.2365C60.4705 72.883 57.2801 71.5591 53.9522 71.5551V71.5551Z" fill="#009723"/>
<path d="M52.6908 86.3515C52.5926 86.3519 52.4956 86.3303 52.407 86.2881L48.1046 84.2617C47.9495 84.1837 47.8311 84.0483 47.7745 83.8842C47.7179 83.7201 47.7276 83.5405 47.8016 83.3835C47.8755 83.2264 48.0078 83.1045 48.1704 83.0436C48.3329 82.9828 48.5128 82.9878 48.6716 83.0576L52.6946 84.9517L59.2395 81.935C59.3998 81.861 59.583 81.8537 59.7487 81.9147C59.9144 81.9757 60.0491 82.1001 60.1231 82.2604C60.1971 82.4208 60.2045 82.604 60.1434 82.7697C60.0824 82.9354 59.9581 83.0701 59.7977 83.1441L52.9713 86.2909C52.8831 86.3307 52.7875 86.3514 52.6908 86.3515V86.3515Z" fill="#009723"/>
</svg>
